<?xml version="1.0" encoding="UTF-8" standalone="no"?>
<!DOCTYPE svg PUBLIC "-//W3C//DTD SVG 1.1//EN"
 "http://www.w3.org/Graphics/SVG/1.1/DTD/svg11.dtd">
<!-- Generated by graphviz version 2.28.0 (20140111.2315)
 -->
<!-- Title: one_gulp_streams_graph Pages: 1 -->
<svg width="1516pt" height="792pt"
 viewBox="0.00 0.00 1516.00 792.00" xmlns="http://www.w3.org/2000/svg" xmlns:xlink="http://www.w3.org/1999/xlink">
<g id="graph0" class="graph" transform="scale(1 1) rotate(0) translate(36 756)">
<title>one_gulp_streams_graph</title>
<polygon fill="white" stroke="none" points="-36,36 -36,-756 1480,-756 1480,36 -36,36"/>
<text text-anchor="middle" x="722" y="-698" font-family="sans-serif" font-size="20.00">one&#45;gulp streams graph</text>
<!-- 410b182b&#45;590d&#45;4648&#45;8663&#45;132496dff52a -->
<g id="node1" class="node"><title>410b182b&#45;590d&#45;4648&#45;8663&#45;132496dff52a</title>
<ellipse fill="none" stroke="mediumslateblue" stroke-width="2" cx="496" cy="-335" rx="28.1045" ry="21.56"/>
<text text-anchor="middle" x="496" y="-330.8" font-family="sans-serif" font-size="14.00" fill="mediumslateblue">html</text>
</g>
<!-- da6ffa9f&#45;88ae&#45;46fa&#45;aec1&#45;f9734fd95262 -->
<g id="node29" class="node"><title>da6ffa9f&#45;88ae&#45;46fa&#45;aec1&#45;f9734fd95262</title>
<polygon fill="none" stroke="black" stroke-width="2" points="712.423,-387 629.577,-387 629.577,-351 712.423,-351 712.423,-387"/>
<text text-anchor="middle" x="671" y="-364.8" font-family="sans-serif" font-size="14.00">injectDev</text>
</g>
<!-- 410b182b&#45;590d&#45;4648&#45;8663&#45;132496dff52a&#45;&gt;da6ffa9f&#45;88ae&#45;46fa&#45;aec1&#45;f9734fd95262 -->
<g id="edge23" class="edge"><title>410b182b&#45;590d&#45;4648&#45;8663&#45;132496dff52a&#45;&gt;da6ffa9f&#45;88ae&#45;46fa&#45;aec1&#45;f9734fd95262</title>
<path fill="none" stroke="mediumslateblue" stroke-width="1.5" d="M523.275,-340.164C548.778,-345.176 588.146,-352.913 619.684,-359.111"/>
<polygon fill="mediumslateblue" stroke="mediumslateblue" stroke-width="1.5" points="619.134,-362.57 629.622,-361.064 620.484,-355.702 619.134,-362.57"/>
</g>
<!-- 2af30b4c&#45;722d&#45;44f2&#45;a5c6&#45;94f96121015f -->
<g id="node30" class="node"><title>2af30b4c&#45;722d&#45;44f2&#45;a5c6&#45;94f96121015f</title>
<polygon fill="none" stroke="black" stroke-width="2" points="876.545,-430 791.455,-430 791.455,-394 876.545,-394 876.545,-430"/>
<text text-anchor="middle" x="834" y="-407.8" font-family="sans-serif" font-size="14.00">injectProd</text>
</g>
<!-- 410b182b&#45;590d&#45;4648&#45;8663&#45;132496dff52a&#45;&gt;2af30b4c&#45;722d&#45;44f2&#45;a5c6&#45;94f96121015f -->
<g id="edge30" class="edge"><title>410b182b&#45;590d&#45;4648&#45;8663&#45;132496dff52a&#45;&gt;2af30b4c&#45;722d&#45;44f2&#45;a5c6&#45;94f96121015f</title>
<path fill="none" stroke="mediumslateblue" stroke-width="1.5" d="M523.722,-331.281C565.354,-326.441 647.793,-320.705 714,-340 746.89,-349.585 779.874,-370.66 802.746,-387.545"/>
<polygon fill="mediumslateblue" stroke="mediumslateblue" stroke-width="1.5" points="800.907,-390.543 810.996,-393.779 805.128,-384.958 800.907,-390.543"/>
</g>
<!-- 3e70f503&#45;3614&#45;4488&#45;aa2e&#45;01abae664193 -->
<g id="node2" class="node"><title>3e70f503&#45;3614&#45;4488&#45;aa2e&#45;01abae664193</title>
<ellipse fill="none" stroke="mediumslateblue" stroke-width="2" cx="161" cy="-643" rx="27" ry="21.56"/>
<text text-anchor="middle" x="161" y="-638.8" font-family="sans-serif" font-size="14.00" fill="mediumslateblue">css</text>
</g>
<!-- f722f71e&#45;da2a&#45;43fb&#45;a686&#45;e93dc40704c3 -->
<g id="node21" class="node"><title>f722f71e&#45;da2a&#45;43fb&#45;a686&#45;e93dc40704c3</title>
<polygon fill="none" stroke="black" stroke-width="2" points="358.533,-570 273.467,-570 273.467,-534 358.533,-534 358.533,-570"/>
<text text-anchor="middle" x="316" y="-547.8" font-family="sans-serif" font-size="14.00">autoprefix</text>
</g>
<!-- 3e70f503&#45;3614&#45;4488&#45;aa2e&#45;01abae664193&#45;&gt;f722f71e&#45;da2a&#45;43fb&#45;a686&#45;e93dc40704c3 -->
<g id="edge8" class="edge"><title>3e70f503&#45;3614&#45;4488&#45;aa2e&#45;01abae664193&#45;&gt;f722f71e&#45;da2a&#45;43fb&#45;a686&#45;e93dc40704c3</title>
<path fill="none" stroke="mediumslateblue" stroke-width="1.5" d="M182.953,-630.538C206.761,-616.377 246.143,-592.954 275.715,-575.365"/>
<polygon fill="mediumslateblue" stroke="mediumslateblue" stroke-width="1.5" points="277.744,-578.231 284.55,-570.111 274.166,-572.215 277.744,-578.231"/>
</g>
<!-- ef5e49af&#45;dd52&#45;49cc&#45;9d12&#45;5b70f970a7b4 -->
<g id="node3" class="node"><title>ef5e49af&#45;dd52&#45;49cc&#45;9d12&#45;5b70f970a7b4</title>
<ellipse fill="none" stroke="mediumslateblue" stroke-width="2" cx="316" cy="-153" rx="27" ry="21.56"/>
<text text-anchor="middle" x="316" y="-148.8" font-family="sans-serif" font-size="14.00" fill="mediumslateblue">js</text>
</g>
<!-- f4137ca9&#45;97bd&#45;4581&#45;8cff&#45;6dd52cd362ff -->
<g id="node28" class="node"><title>f4137ca9&#45;97bd&#45;4581&#45;8cff&#45;6dd52cd362ff</title>
<polygon fill="none" stroke="black" stroke-width="2" points="551.434,-179 440.566,-179 440.566,-143 551.434,-143 551.434,-179"/>
<text text-anchor="middle" x="496" y="-156.8" font-family="sans-serif" font-size="14.00">sortJsByDepth</text>
</g>
<!-- ef5e49af&#45;dd52&#45;49cc&#45;9d12&#45;5b70f970a7b4&#45;&gt;f4137ca9&#45;97bd&#45;4581&#45;8cff&#45;6dd52cd362ff -->
<g id="edge20" class="edge"><title>ef5e49af&#45;dd52&#45;49cc&#45;9d12&#45;5b70f970a7b4&#45;&gt;f4137ca9&#45;97bd&#45;4581&#45;8cff&#45;6dd52cd362ff</title>
<path fill="none" stroke="mediumslateblue" stroke-width="1.5" d="M343.265,-154.18C366.202,-155.211 400.451,-156.751 430.609,-158.106"/>
<polygon fill="mediumslateblue" stroke="mediumslateblue" stroke-width="1.5" points="430.51,-161.605 440.657,-158.558 430.824,-154.612 430.51,-161.605"/>
</g>
<!-- c8f341e2&#45;00ea&#45;49f0&#45;a1ec&#45;d321126feb0f -->
<g id="node33" class="node"><title>c8f341e2&#45;00ea&#45;49f0&#45;a1ec&#45;d321126feb0f</title>
<polygon fill="limegreen" stroke="limegreen" points="1063.58,-213.3 954.416,-213.3 954.416,-160.7 1063.58,-160.7 1063.58,-213.3"/>
<text text-anchor="middle" x="1009" y="-182.8" font-family="sans-serif" font-size="14.00" fill="white">browserSync</text>
</g>
<!-- ef5e49af&#45;dd52&#45;49cc&#45;9d12&#45;5b70f970a7b4&#45;&gt;c8f341e2&#45;00ea&#45;49f0&#45;a1ec&#45;d321126feb0f -->
<g id="edge41" class="edge"><title>ef5e49af&#45;dd52&#45;49cc&#45;9d12&#45;5b70f970a7b4&#45;&gt;c8f341e2&#45;00ea&#45;49f0&#45;a1ec&#45;d321126feb0f</title>
<path fill="none" stroke="mediumslateblue" stroke-width="1.5" d="M342.364,-147.197C366.34,-142.028 403.398,-134.855 436,-132 633.802,-114.681 685.758,-127.758 882,-158 902.497,-161.159 924.611,-165.815 944.504,-170.476"/>
<polygon fill="mediumslateblue" stroke="mediumslateblue" stroke-width="1.5" points="943.839,-173.915 954.379,-172.831 945.464,-167.106 943.839,-173.915"/>
</g>
<!-- d695a86d&#45;2533&#45;42db&#45;b1c1&#45;a50c669c7e57 -->
<g id="node4" class="node"><title>d695a86d&#45;2533&#45;42db&#45;b1c1&#45;a50c669c7e57</title>
<ellipse fill="none" stroke="mediumslateblue" stroke-width="2" cx="834" cy="-257" rx="37.8797" ry="21.56"/>
<text text-anchor="middle" x="834" y="-252.8" font-family="sans-serif" font-size="14.00" fill="mediumslateblue">images</text>
</g>
<!-- 4cd436ed&#45;c8f4&#45;4e8f&#45;9667&#45;0619beca40aa -->
<g id="node31" class="node"><title>4cd436ed&#45;c8f4&#45;4e8f&#45;9667&#45;0619beca40aa</title>
<polygon fill="none" stroke="black" stroke-width="2" points="1050.99,-282 967.008,-282 967.008,-246 1050.99,-246 1050.99,-282"/>
<text text-anchor="middle" x="1009" y="-259.8" font-family="sans-serif" font-size="14.00">imagemin</text>
</g>
<!-- d695a86d&#45;2533&#45;42db&#45;b1c1&#45;a50c669c7e57&#45;&gt;4cd436ed&#45;c8f4&#45;4e8f&#45;9667&#45;0619beca40aa -->
<g id="edge35" class="edge"><title>d695a86d&#45;2533&#45;42db&#45;b1c1&#45;a50c669c7e57&#45;&gt;4cd436ed&#45;c8f4&#45;4e8f&#45;9667&#45;0619beca40aa</title>
<path fill="none" stroke="mediumslateblue" stroke-width="1.5" d="M872.113,-258.502C896.763,-259.499 929.46,-260.822 956.604,-261.92"/>
<polygon fill="mediumslateblue" stroke="mediumslateblue" stroke-width="1.5" points="956.573,-265.422 966.706,-262.329 956.856,-258.428 956.573,-265.422"/>
</g>
<!-- d695a86d&#45;2533&#45;42db&#45;b1c1&#45;a50c669c7e57&#45;&gt;c8f341e2&#45;00ea&#45;49f0&#45;a1ec&#45;d321126feb0f -->
<g id="edge42" class="edge"><title>d695a86d&#45;2533&#45;42db&#45;b1c1&#45;a50c669c7e57&#45;&gt;c8f341e2&#45;00ea&#45;49f0&#45;a1ec&#45;d321126feb0f</title>
<path fill="none" stroke="mediumslateblue" stroke-width="1.5" d="M865.531,-244.647C887.484,-235.764 917.866,-223.471 944.936,-212.517"/>
<polygon fill="mediumslateblue" stroke="mediumslateblue" stroke-width="1.5" points="946.396,-215.702 954.353,-208.707 943.77,-209.213 946.396,-215.702"/>
</g>
<!-- 22daf7b2&#45;7099&#45;46e8&#45;9d3c&#45;e88047301091 -->
<g id="node5" class="node"><title>22daf7b2&#45;7099&#45;46e8&#45;9d3c&#45;e88047301091</title>
<ellipse fill="none" stroke="mediumslateblue" stroke-width="2" cx="316" cy="-459" rx="27" ry="21.56"/>
<text text-anchor="middle" x="316" y="-454.8" font-family="sans-serif" font-size="14.00" fill="mediumslateblue">jade</text>
</g>
<!-- cf80311a&#45;4767&#45;4dc8&#45;beb0&#45;034f0f64bcfd -->
<g id="node14" class="node"><title>cf80311a&#45;4767&#45;4dc8&#45;beb0&#45;034f0f64bcfd</title>
<polygon fill="none" stroke="black" stroke-width="2" points="523,-473 469,-473 469,-437 523,-437 523,-473"/>
<text text-anchor="middle" x="496" y="-450.8" font-family="sans-serif" font-size="14.00">jade</text>
</g>
<!-- 22daf7b2&#45;7099&#45;46e8&#45;9d3c&#45;e88047301091&#45;&gt;cf80311a&#45;4767&#45;4dc8&#45;beb0&#45;034f0f64bcfd -->
<g id="edge1" class="edge"><title>22daf7b2&#45;7099&#45;46e8&#45;9d3c&#45;e88047301091&#45;&gt;cf80311a&#45;4767&#45;4dc8&#45;beb0&#45;034f0f64bcfd</title>
<path fill="none" stroke="mediumslateblue" stroke-width="1.5" d="M343.265,-458.41C373.851,-457.722 424.551,-456.583 458.843,-455.813"/>
<polygon fill="mediumslateblue" stroke="mediumslateblue" stroke-width="1.5" points="458.999,-459.31 468.918,-455.586 458.842,-452.312 458.999,-459.31"/>
</g>
<!-- acd52124&#45;f3d9&#45;42f6&#45;96e3&#45;017715f9b2e7 -->
<g id="node6" class="node"><title>acd52124&#45;f3d9&#45;42f6&#45;96e3&#45;017715f9b2e7</title>
<ellipse fill="none" stroke="mediumslateblue" stroke-width="2" cx="316" cy="-393" rx="27" ry="21.56"/>
<text text-anchor="middle" x="316" y="-388.8" font-family="sans-serif" font-size="14.00" fill="mediumslateblue">md</text>
</g>
<!-- bb22e4b4&#45;ce85&#45;4fe5&#45;9311&#45;d39bfde1a090 -->
<g id="node15" class="node"><title>bb22e4b4&#45;ce85&#45;4fe5&#45;9311&#45;d39bfde1a090</title>
<polygon fill="none" stroke="black" stroke-width="2" points="539.872,-415 452.128,-415 452.128,-379 539.872,-379 539.872,-415"/>
<text text-anchor="middle" x="496" y="-392.8" font-family="sans-serif" font-size="14.00">markdown</text>
</g>
<!-- acd52124&#45;f3d9&#45;42f6&#45;96e3&#45;017715f9b2e7&#45;&gt;bb22e4b4&#45;ce85&#45;4fe5&#45;9311&#45;d39bfde1a090 -->
<g id="edge2" class="edge"><title>acd52124&#45;f3d9&#45;42f6&#45;96e3&#45;017715f9b2e7&#45;&gt;bb22e4b4&#45;ce85&#45;4fe5&#45;9311&#45;d39bfde1a090</title>
<path fill="none" stroke="mediumslateblue" stroke-width="1.5" d="M343.265,-393.59C369.094,-394.171 409.268,-395.073 441.79,-395.804"/>
<polygon fill="mediumslateblue" stroke="mediumslateblue" stroke-width="1.5" points="441.977,-399.309 452.053,-396.035 442.134,-392.311 441.977,-399.309"/>
</g>
<!-- 8735de24&#45;96c8&#45;485a&#45;b142&#45;518fbaea29b3 -->
<g id="node7" class="node"><title>8735de24&#45;96c8&#45;485a&#45;b142&#45;518fbaea29b3</title>
<ellipse fill="none" stroke="mediumslateblue" stroke-width="2" cx="27" cy="-589" rx="27" ry="21.56"/>
<text text-anchor="middle" x="27" y="-584.8" font-family="sans-serif" font-size="14.00" fill="mediumslateblue">scss</text>
</g>
<!-- 54a83b4d&#45;5fd9&#45;46ff&#45;b8b1&#45;e89d34e71895 -->
<g id="node16" class="node"><title>54a83b4d&#45;5fd9&#45;46ff&#45;b8b1&#45;e89d34e71895</title>
<polygon fill="none" stroke="black" stroke-width="2" points="188,-599 134,-599 134,-563 188,-563 188,-599"/>
<text text-anchor="middle" x="161" y="-576.8" font-family="sans-serif" font-size="14.00">sass</text>
</g>
<!-- 8735de24&#45;96c8&#45;485a&#45;b142&#45;518fbaea29b3&#45;&gt;54a83b4d&#45;5fd9&#45;46ff&#45;b8b1&#45;e89d34e71895 -->
<g id="edge3" class="edge"><title>8735de24&#45;96c8&#45;485a&#45;b142&#45;518fbaea29b3&#45;&gt;54a83b4d&#45;5fd9&#45;46ff&#45;b8b1&#45;e89d34e71895</title>
<path fill="none" stroke="mediumslateblue" stroke-width="1.5" d="M54.079,-587.419C74.0565,-586.209 101.851,-584.524 123.955,-583.185"/>
<polygon fill="mediumslateblue" stroke="mediumslateblue" stroke-width="1.5" points="124.205,-586.676 133.975,-582.577 123.782,-579.689 124.205,-586.676"/>
</g>
<!-- e8dea960&#45;3694&#45;4465&#45;a0ae&#45;e3bd894863d3 -->
<g id="node8" class="node"><title>e8dea960&#45;3694&#45;4465&#45;a0ae&#45;e3bd894863d3</title>
<ellipse fill="none" stroke="mediumslateblue" stroke-width="2" cx="27" cy="-523" rx="27" ry="21.56"/>
<text text-anchor="middle" x="27" y="-518.8" font-family="sans-serif" font-size="14.00" fill="mediumslateblue">less</text>
</g>
<!-- 89dae321&#45;4548&#45;4629&#45;9548&#45;c16bcea083fb -->
<g id="node17" class="node"><title>89dae321&#45;4548&#45;4629&#45;9548&#45;c16bcea083fb</title>
<polygon fill="none" stroke="black" stroke-width="2" points="188,-541 134,-541 134,-505 188,-505 188,-541"/>
<text text-anchor="middle" x="161" y="-518.8" font-family="sans-serif" font-size="14.00">less</text>
</g>
<!-- e8dea960&#45;3694&#45;4465&#45;a0ae&#45;e3bd894863d3&#45;&gt;89dae321&#45;4548&#45;4629&#45;9548&#45;c16bcea083fb -->
<g id="edge4" class="edge"><title>e8dea960&#45;3694&#45;4465&#45;a0ae&#45;e3bd894863d3&#45;&gt;89dae321&#45;4548&#45;4629&#45;9548&#45;c16bcea083fb</title>
<path fill="none" stroke="mediumslateblue" stroke-width="1.5" d="M54.079,-523C74.0565,-523 101.851,-523 123.955,-523"/>
<polygon fill="mediumslateblue" stroke="mediumslateblue" stroke-width="1.5" points="123.975,-526.5 133.975,-523 123.975,-519.5 123.975,-526.5"/>
</g>
<!-- b4403ee9&#45;420c&#45;421a&#45;aca1&#45;bc825fa44727 -->
<g id="node9" class="node"><title>b4403ee9&#45;420c&#45;421a&#45;aca1&#45;bc825fa44727</title>
<ellipse fill="none" stroke="mediumslateblue" stroke-width="2" cx="27" cy="-457" rx="27" ry="21.56"/>
<text text-anchor="middle" x="27" y="-452.8" font-family="sans-serif" font-size="14.00" fill="mediumslateblue">styl</text>
</g>
<!-- a63af785&#45;7d5e&#45;4d4d&#45;939e&#45;e31435fd7158 -->
<g id="node18" class="node"><title>a63af785&#45;7d5e&#45;4d4d&#45;939e&#45;e31435fd7158</title>
<polygon fill="none" stroke="black" stroke-width="2" points="191.171,-479 130.829,-479 130.829,-443 191.171,-443 191.171,-479"/>
<text text-anchor="middle" x="161" y="-456.8" font-family="sans-serif" font-size="14.00">stylus</text>
</g>
<!-- b4403ee9&#45;420c&#45;421a&#45;aca1&#45;bc825fa44727&#45;&gt;a63af785&#45;7d5e&#45;4d4d&#45;939e&#45;e31435fd7158 -->
<g id="edge5" class="edge"><title>b4403ee9&#45;420c&#45;421a&#45;aca1&#45;bc825fa44727&#45;&gt;a63af785&#45;7d5e&#45;4d4d&#45;939e&#45;e31435fd7158</title>
<path fill="none" stroke="mediumslateblue" stroke-width="1.5" d="M54.079,-457.79C73.0621,-458.366 99.1031,-459.155 120.614,-459.806"/>
<polygon fill="mediumslateblue" stroke="mediumslateblue" stroke-width="1.5" points="120.657,-463.309 130.759,-460.114 120.869,-456.313 120.657,-463.309"/>
</g>
<!-- e8d5d753&#45;cc27&#45;4530&#45;9079&#45;93340435ffec -->
<g id="node10" class="node"><title>e8d5d753&#45;cc27&#45;4530&#45;9079&#45;93340435ffec</title>
<ellipse fill="none" stroke="mediumslateblue" stroke-width="2" cx="161" cy="-21" rx="27" ry="21.56"/>
<text text-anchor="middle" x="161" y="-16.8" font-family="sans-serif" font-size="14.00" fill="mediumslateblue">ts</text>
</g>
<!-- 6ea0d572&#45;d789&#45;4b4d&#45;ac0b&#45;de05173fe8e2 -->
<g id="node19" class="node"><title>6ea0d572&#45;d789&#45;4b4d&#45;ac0b&#45;de05173fe8e2</title>
<polygon fill="none" stroke="black" stroke-width="2" points="357.706,-39 274.294,-39 274.294,-3 357.706,-3 357.706,-39"/>
<text text-anchor="middle" x="316" y="-16.8" font-family="sans-serif" font-size="14.00">typescript</text>
</g>
<!-- e8d5d753&#45;cc27&#45;4530&#45;9079&#45;93340435ffec&#45;&gt;6ea0d572&#45;d789&#45;4b4d&#45;ac0b&#45;de05173fe8e2 -->
<g id="edge6" class="edge"><title>e8d5d753&#45;cc27&#45;4530&#45;9079&#45;93340435ffec&#45;&gt;6ea0d572&#45;d789&#45;4b4d&#45;ac0b&#45;de05173fe8e2</title>
<path fill="none" stroke="mediumslateblue" stroke-width="1.5" d="M188.302,-21C209.102,-21 238.768,-21 264.166,-21"/>
<polygon fill="mediumslateblue" stroke="mediumslateblue" stroke-width="1.5" points="264.386,-24.5001 274.386,-21 264.386,-17.5001 264.386,-24.5001"/>
</g>
<!-- e4811bf9&#45;3d2b&#45;4171&#45;8205&#45;344496b5961c -->
<g id="node11" class="node"><title>e4811bf9&#45;3d2b&#45;4171&#45;8205&#45;344496b5961c</title>
<ellipse fill="none" stroke="mediumslateblue" stroke-width="2" cx="161" cy="-89" rx="34.7474" ry="21.56"/>
<text text-anchor="middle" x="161" y="-84.8" font-family="sans-serif" font-size="14.00" fill="mediumslateblue">coffee</text>
</g>
<!-- f80df969&#45;dc51&#45;4f67&#45;86c0&#45;4497e2298494 -->
<g id="node20" class="node"><title>f80df969&#45;dc51&#45;4f67&#45;86c0&#45;4497e2298494</title>
<polygon fill="none" stroke="black" stroke-width="2" points="364.405,-107 267.595,-107 267.595,-71 364.405,-71 364.405,-107"/>
<text text-anchor="middle" x="316" y="-84.8" font-family="sans-serif" font-size="14.00">coffeeScript</text>
</g>
<!-- e4811bf9&#45;3d2b&#45;4171&#45;8205&#45;344496b5961c&#45;&gt;f80df969&#45;dc51&#45;4f67&#45;86c0&#45;4497e2298494 -->
<g id="edge7" class="edge"><title>e4811bf9&#45;3d2b&#45;4171&#45;8205&#45;344496b5961c&#45;&gt;f80df969&#45;dc51&#45;4f67&#45;86c0&#45;4497e2298494</title>
<path fill="none" stroke="mediumslateblue" stroke-width="1.5" d="M195.956,-89C214.113,-89 236.96,-89 257.771,-89"/>
<polygon fill="mediumslateblue" stroke="mediumslateblue" stroke-width="1.5" points="257.794,-92.5001 267.794,-89 257.794,-85.5001 257.794,-92.5001"/>
</g>
<!-- 57c7681c&#45;ba67&#45;457e&#45;95d8&#45;a41d3b21ed45 -->
<g id="node12" class="node"><title>57c7681c&#45;ba67&#45;457e&#45;95d8&#45;a41d3b21ed45</title>
<ellipse fill="none" stroke="mediumslateblue" stroke-width="2" cx="496" cy="-517" rx="48.8744" ry="21.56"/>
<text text-anchor="middle" x="496" y="-512.8" font-family="sans-serif" font-size="14.00" fill="mediumslateblue">bowerCss</text>
</g>
<!-- 8624d386&#45;47a7&#45;4dbc&#45;bfff&#45;ac41463600cd -->
<g id="node24" class="node"><title>8624d386&#45;47a7&#45;4dbc&#45;bfff&#45;ac41463600cd</title>
<polygon fill="none" stroke="black" stroke-width="2" points="713.261,-537 628.739,-537 628.739,-501 713.261,-501 713.261,-537"/>
<text text-anchor="middle" x="671" y="-514.8" font-family="sans-serif" font-size="14.00">concatCss</text>
</g>
<!-- 57c7681c&#45;ba67&#45;457e&#45;95d8&#45;a41d3b21ed45&#45;&gt;8624d386&#45;47a7&#45;4dbc&#45;bfff&#45;ac41463600cd -->
<g id="edge14" class="edge"><title>57c7681c&#45;ba67&#45;457e&#45;95d8&#45;a41d3b21ed45&#45;&gt;8624d386&#45;47a7&#45;4dbc&#45;bfff&#45;ac41463600cd</title>
<path fill="none" stroke="mediumslateblue" stroke-width="1.5" d="M545.19,-517.557C568.008,-517.821 595.283,-518.136 618.508,-518.405"/>
<polygon fill="mediumslateblue" stroke="mediumslateblue" stroke-width="1.5" points="618.485,-521.905 628.524,-518.521 618.566,-514.905 618.485,-521.905"/>
</g>
<!-- 57c7681c&#45;ba67&#45;457e&#45;95d8&#45;a41d3b21ed45&#45;&gt;da6ffa9f&#45;88ae&#45;46fa&#45;aec1&#45;f9734fd95262 -->
<g id="edge26" class="edge"><title>57c7681c&#45;ba67&#45;457e&#45;95d8&#45;a41d3b21ed45&#45;&gt;da6ffa9f&#45;88ae&#45;46fa&#45;aec1&#45;f9734fd95262</title>
<path fill="none" stroke="mediumslateblue" stroke-dasharray="5,2" d="M529.254,-501.091C538.236,-496.102 547.777,-490.249 556,-484 591.344,-457.139 626.461,-419.659 648.182,-394.882"/>
<polygon fill="none" stroke="mediumslateblue" points="650.839,-397.16 654.748,-387.313 645.551,-392.574 650.839,-397.16"/>
</g>
<!-- 0bf7beb6&#45;9a95&#45;43ba&#45;aa41&#45;10031ff6358f -->
<g id="node13" class="node"><title>0bf7beb6&#45;9a95&#45;43ba&#45;aa41&#45;10031ff6358f</title>
<ellipse fill="none" stroke="mediumslateblue" stroke-width="2" cx="496" cy="-269" rx="42.171" ry="21.56"/>
<text text-anchor="middle" x="496" y="-264.8" font-family="sans-serif" font-size="14.00" fill="mediumslateblue">bowerJs</text>
</g>
<!-- 7ef4e135&#45;5b08&#45;48af&#45;b5e6&#45;f170656bd044 -->
<g id="node26" class="node"><title>7ef4e135&#45;5b08&#45;48af&#45;b5e6&#45;f170656bd044</title>
<polygon fill="none" stroke="black" stroke-width="2" points="708.925,-283 633.075,-283 633.075,-247 708.925,-247 708.925,-283"/>
<text text-anchor="middle" x="671" y="-260.8" font-family="sans-serif" font-size="14.00">concatJs</text>
</g>
<!-- 0bf7beb6&#45;9a95&#45;43ba&#45;aa41&#45;10031ff6358f&#45;&gt;7ef4e135&#45;5b08&#45;48af&#45;b5e6&#45;f170656bd044 -->
<g id="edge17" class="edge"><title>0bf7beb6&#45;9a95&#45;43ba&#45;aa41&#45;10031ff6358f&#45;&gt;7ef4e135&#45;5b08&#45;48af&#45;b5e6&#45;f170656bd044</title>
<path fill="none" stroke="mediumslateblue" stroke-width="1.5" d="M538.438,-268.042C563.853,-267.454 596.469,-266.7 622.867,-266.09"/>
<polygon fill="mediumslateblue" stroke="mediumslateblue" stroke-width="1.5" points="623.103,-269.585 633.02,-265.855 622.942,-262.587 623.103,-269.585"/>
</g>
<!-- 0bf7beb6&#45;9a95&#45;43ba&#45;aa41&#45;10031ff6358f&#45;&gt;da6ffa9f&#45;88ae&#45;46fa&#45;aec1&#45;f9734fd95262 -->
<g id="edge27" class="edge"><title>0bf7beb6&#45;9a95&#45;43ba&#45;aa41&#45;10031ff6358f&#45;&gt;da6ffa9f&#45;88ae&#45;46fa&#45;aec1&#45;f9734fd95262</title>
<path fill="none" stroke="mediumslateblue" stroke-dasharray="5,2" d="M525.279,-284.656C535.038,-290.102 546.022,-296.278 556,-302 581.03,-316.353 608.96,-332.762 630.911,-345.749"/>
<polygon fill="none" stroke="mediumslateblue" points="629.232,-348.822 639.62,-350.907 632.8,-342.799 629.232,-348.822"/>
</g>
<!-- cf80311a&#45;4767&#45;4dc8&#45;beb0&#45;034f0f64bcfd&#45;&gt;da6ffa9f&#45;88ae&#45;46fa&#45;aec1&#45;f9734fd95262 -->
<g id="edge24" class="edge"><title>cf80311a&#45;4767&#45;4dc8&#45;beb0&#45;034f0f64bcfd&#45;&gt;da6ffa9f&#45;88ae&#45;46fa&#45;aec1&#45;f9734fd95262</title>
<path fill="none" stroke="black" stroke-width="1.5" d="M523.159,-442.19C533.408,-437.158 545.263,-431.323 556,-426 578.796,-414.699 604.113,-402.05 625.087,-391.545"/>
<polygon fill="black" stroke="black" stroke-width="1.5" points="626.718,-394.642 634.09,-387.033 623.582,-388.384 626.718,-394.642"/>
</g>
<!-- cf80311a&#45;4767&#45;4dc8&#45;beb0&#45;034f0f64bcfd&#45;&gt;2af30b4c&#45;722d&#45;44f2&#45;a5c6&#45;94f96121015f -->
<g id="edge31" class="edge"><title>cf80311a&#45;4767&#45;4dc8&#45;beb0&#45;034f0f64bcfd&#45;&gt;2af30b4c&#45;722d&#45;44f2&#45;a5c6&#45;94f96121015f</title>
<path fill="none" stroke="black" stroke-width="1.5" d="M523.086,-451.662C578.343,-444.59 708.082,-427.986 780.964,-418.659"/>
<polygon fill="black" stroke="black" stroke-width="1.5" points="781.814,-422.079 791.289,-417.338 780.925,-415.136 781.814,-422.079"/>
</g>
<!-- bb22e4b4&#45;ce85&#45;4fe5&#45;9311&#45;d39bfde1a090&#45;&gt;da6ffa9f&#45;88ae&#45;46fa&#45;aec1&#45;f9734fd95262 -->
<g id="edge25" class="edge"><title>bb22e4b4&#45;ce85&#45;4fe5&#45;9311&#45;d39bfde1a090&#45;&gt;da6ffa9f&#45;88ae&#45;46fa&#45;aec1&#45;f9734fd95262</title>
<path fill="none" stroke="black" stroke-width="1.5" d="M540.209,-390.007C564.31,-386.106 594.453,-381.227 619.623,-377.154"/>
<polygon fill="black" stroke="black" stroke-width="1.5" points="620.401,-380.573 629.714,-375.52 619.283,-373.663 620.401,-380.573"/>
</g>
<!-- bb22e4b4&#45;ce85&#45;4fe5&#45;9311&#45;d39bfde1a090&#45;&gt;2af30b4c&#45;722d&#45;44f2&#45;a5c6&#45;94f96121015f -->
<g id="edge32" class="edge"><title>bb22e4b4&#45;ce85&#45;4fe5&#45;9311&#45;d39bfde1a090&#45;&gt;2af30b4c&#45;722d&#45;44f2&#45;a5c6&#45;94f96121015f</title>
<path fill="none" stroke="black" stroke-width="1.5" d="M539.896,-398.915C601.527,-401.666 714.981,-406.731 781.205,-409.688"/>
<polygon fill="black" stroke="black" stroke-width="1.5" points="781.267,-413.194 791.413,-410.143 781.579,-406.201 781.267,-413.194"/>
</g>
<!-- 54a83b4d&#45;5fd9&#45;46ff&#45;b8b1&#45;e89d34e71895&#45;&gt;f722f71e&#45;da2a&#45;43fb&#45;a686&#45;e93dc40704c3 -->
<g id="edge9" class="edge"><title>54a83b4d&#45;5fd9&#45;46ff&#45;b8b1&#45;e89d34e71895&#45;&gt;f722f71e&#45;da2a&#45;43fb&#45;a686&#45;e93dc40704c3</title>
<path fill="none" stroke="black" stroke-width="1.5" d="M188.302,-576.015C208.802,-572.129 237.913,-566.611 263.063,-561.844"/>
<polygon fill="black" stroke="black" stroke-width="1.5" points="264.026,-565.224 273.199,-559.923 262.722,-558.347 264.026,-565.224"/>
</g>
<!-- 89dae321&#45;4548&#45;4629&#45;9548&#45;c16bcea083fb&#45;&gt;f722f71e&#45;da2a&#45;43fb&#45;a686&#45;e93dc40704c3 -->
<g id="edge10" class="edge"><title>89dae321&#45;4548&#45;4629&#45;9548&#45;c16bcea083fb&#45;&gt;f722f71e&#45;da2a&#45;43fb&#45;a686&#45;e93dc40704c3</title>
<path fill="none" stroke="black" stroke-width="1.5" d="M188.302,-527.985C208.802,-531.871 237.913,-537.389 263.063,-542.156"/>
<polygon fill="black" stroke="black" stroke-width="1.5" points="262.722,-545.653 273.199,-544.077 264.026,-538.776 262.722,-545.653"/>
</g>
<!-- a63af785&#45;7d5e&#45;4d4d&#45;939e&#45;e31435fd7158&#45;&gt;f722f71e&#45;da2a&#45;43fb&#45;a686&#45;e93dc40704c3 -->
<g id="edge11" class="edge"><title>a63af785&#45;7d5e&#45;4d4d&#45;939e&#45;e31435fd7158&#45;&gt;f722f71e&#45;da2a&#45;43fb&#45;a686&#45;e93dc40704c3</title>
<path fill="none" stroke="black" stroke-width="1.5" d="M191.5,-478.546C215.425,-492.775 249.363,-512.961 275.609,-528.572"/>
<polygon fill="black" stroke="black" stroke-width="1.5" points="274.16,-531.782 284.543,-533.885 277.738,-525.765 274.16,-531.782"/>
</g>
<!-- 6ea0d572&#45;d789&#45;4b4d&#45;ac0b&#45;de05173fe8e2&#45;&gt;f4137ca9&#45;97bd&#45;4581&#45;8cff&#45;6dd52cd362ff -->
<g id="edge21" class="edge"><title>6ea0d572&#45;d789&#45;4b4d&#45;ac0b&#45;de05173fe8e2&#45;&gt;f4137ca9&#45;97bd&#45;4581&#45;8cff&#45;6dd52cd362ff</title>
<path fill="none" stroke="black" stroke-width="1.5" d="M339.906,-39.0159C371.461,-63.8342 428.409,-108.625 463.822,-136.478"/>
<polygon fill="black" stroke="black" stroke-width="1.5" points="461.876,-139.4 471.9,-142.831 466.204,-133.898 461.876,-139.4"/>
</g>
<!-- 3a312704&#45;c58a&#45;4bac&#45;b505&#45;6a2f56174d8e -->
<g id="node32" class="node"><title>3a312704&#45;c58a&#45;4bac&#45;b505&#45;6a2f56174d8e</title>
<polygon fill="none" stroke="black" stroke-width="2" points="881.637,-205 786.363,-205 786.363,-169 881.637,-169 881.637,-205"/>
<text text-anchor="middle" x="834" y="-182.8" font-family="sans-serif" font-size="14.00">writeToDev</text>
</g>
<!-- 6ea0d572&#45;d789&#45;4b4d&#45;ac0b&#45;de05173fe8e2&#45;&gt;3a312704&#45;c58a&#45;4bac&#45;b505&#45;6a2f56174d8e -->
<g id="edge39" class="edge"><title>6ea0d572&#45;d789&#45;4b4d&#45;ac0b&#45;de05173fe8e2&#45;&gt;3a312704&#45;c58a&#45;4bac&#45;b505&#45;6a2f56174d8e</title>
<path fill="none" stroke="black" stroke-width="1.5" d="M357.86,-32.4928C430.145,-53.0378 585.108,-98.0406 714,-142 735.019,-149.169 757.885,-157.648 777.903,-165.303"/>
<polygon fill="black" stroke="black" stroke-width="1.5" points="776.892,-168.663 787.482,-168.985 779.403,-162.13 776.892,-168.663"/>
</g>
<!-- f80df969&#45;dc51&#45;4f67&#45;86c0&#45;4497e2298494&#45;&gt;f4137ca9&#45;97bd&#45;4581&#45;8cff&#45;6dd52cd362ff -->
<g id="edge22" class="edge"><title>f80df969&#45;dc51&#45;4f67&#45;86c0&#45;4497e2298494&#45;&gt;f4137ca9&#45;97bd&#45;4581&#45;8cff&#45;6dd52cd362ff</title>
<path fill="none" stroke="black" stroke-width="1.5" d="M361.917,-107.169C385.935,-116.884 415.683,-128.917 440.959,-139.141"/>
<polygon fill="black" stroke="black" stroke-width="1.5" points="439.823,-142.457 450.406,-142.962 442.448,-135.968 439.823,-142.457"/>
</g>
<!-- f80df969&#45;dc51&#45;4f67&#45;86c0&#45;4497e2298494&#45;&gt;3a312704&#45;c58a&#45;4bac&#45;b505&#45;6a2f56174d8e -->
<g id="edge38" class="edge"><title>f80df969&#45;dc51&#45;4f67&#45;86c0&#45;4497e2298494&#45;&gt;3a312704&#45;c58a&#45;4bac&#45;b505&#45;6a2f56174d8e</title>
<path fill="none" stroke="black" stroke-width="1.5" d="M364.208,-97.2352C412.452,-105.712 489.514,-119.42 556,-132 632.191,-146.417 719.964,-164.012 775.929,-175.356"/>
<polygon fill="black" stroke="black" stroke-width="1.5" points="775.502,-178.841 785.999,-177.4 776.894,-171.981 775.502,-178.841"/>
</g>
<!-- 42059627&#45;a472&#45;4e37&#45;ac54&#45;e8856ab25c73 -->
<g id="node27" class="node"><title>42059627&#45;a472&#45;4e37&#45;ac54&#45;e8856ab25c73</title>
<polygon fill="none" stroke="black" stroke-width="2" points="555.77,-597 436.23,-597 436.23,-561 555.77,-561 555.77,-597"/>
<text text-anchor="middle" x="496" y="-574.8" font-family="sans-serif" font-size="14.00">sortCssByDepth</text>
</g>
<!-- f722f71e&#45;da2a&#45;43fb&#45;a686&#45;e93dc40704c3&#45;&gt;42059627&#45;a472&#45;4e37&#45;ac54&#45;e8856ab25c73 -->
<g id="edge19" class="edge"><title>f722f71e&#45;da2a&#45;43fb&#45;a686&#45;e93dc40704c3&#45;&gt;42059627&#45;a472&#45;4e37&#45;ac54&#45;e8856ab25c73</title>
<path fill="none" stroke="black" stroke-width="1.5" d="M358.733,-558.33C378.783,-561.372 403.343,-565.097 426.062,-568.543"/>
<polygon fill="black" stroke="black" stroke-width="1.5" points="425.595,-572.012 436.007,-570.052 426.645,-565.091 425.595,-572.012"/>
</g>
<!-- f722f71e&#45;da2a&#45;43fb&#45;a686&#45;e93dc40704c3&#45;&gt;3a312704&#45;c58a&#45;4bac&#45;b505&#45;6a2f56174d8e -->
<g id="edge37" class="edge"><title>f722f71e&#45;da2a&#45;43fb&#45;a686&#45;e93dc40704c3&#45;&gt;3a312704&#45;c58a&#45;4bac&#45;b505&#45;6a2f56174d8e</title>
<path fill="none" stroke="black" stroke-width="1.5" d="M334.047,-533.764C344.011,-522.254 356.133,-506.647 364,-491 416.896,-385.784 346.631,-312.692 436,-236 485.832,-193.237 678.68,-186.914 776.057,-186.529"/>
<polygon fill="black" stroke="black" stroke-width="1.5" points="776.317,-190.029 786.31,-186.509 776.303,-183.029 776.317,-190.029"/>
</g>
<!-- 13708d32&#45;4b18&#45;4c0c&#45;969e&#45;2461b60ec6d1 -->
<g id="node22" class="node"><title>13708d32&#45;4b18&#45;4c0c&#45;969e&#45;2461b60ec6d1</title>
<polygon fill="none" stroke="black" stroke-width="2" points="1056.11,-407 961.889,-407 961.889,-371 1056.11,-371 1056.11,-407"/>
<text text-anchor="middle" x="1009" y="-384.8" font-family="sans-serif" font-size="14.00">minifyHtml</text>
</g>
<!-- 460cc29a&#45;86dd&#45;4f88&#45;81d5&#45;62578d88f069 -->
<g id="node34" class="node"><title>460cc29a&#45;86dd&#45;4f88&#45;81d5&#45;62578d88f069</title>
<polygon fill="none" stroke="black" stroke-width="2" points="1235.26,-376 1136.74,-376 1136.74,-340 1235.26,-340 1235.26,-376"/>
<text text-anchor="middle" x="1186" y="-353.8" font-family="sans-serif" font-size="14.00">writeToProd</text>
</g>
<!-- 13708d32&#45;4b18&#45;4c0c&#45;969e&#45;2461b60ec6d1&#45;&gt;460cc29a&#45;86dd&#45;4f88&#45;81d5&#45;62578d88f069 -->
<g id="edge43" class="edge"><title>13708d32&#45;4b18&#45;4c0c&#45;969e&#45;2461b60ec6d1&#45;&gt;460cc29a&#45;86dd&#45;4f88&#45;81d5&#45;62578d88f069</title>
<path fill="none" stroke="black" stroke-width="1.5" d="M1056.44,-380.774C1077.96,-376.961 1103.77,-372.39 1126.6,-368.346"/>
<polygon fill="black" stroke="black" stroke-width="1.5" points="1127.27,-371.78 1136.51,-366.59 1126.05,-364.888 1127.27,-371.78"/>
</g>
<!-- 0b4d2d8b&#45;cd46&#45;49a5&#45;9efc&#45;f3f123e370f5 -->
<g id="node23" class="node"><title>0b4d2d8b&#45;cd46&#45;49a5&#45;9efc&#45;f3f123e370f5</title>
<polygon fill="none" stroke="black" stroke-width="2" points="876.559,-534 791.441,-534 791.441,-498 876.559,-498 876.559,-534"/>
<text text-anchor="middle" x="834" y="-511.8" font-family="sans-serif" font-size="14.00">minifyCss</text>
</g>
<!-- 0b4d2d8b&#45;cd46&#45;49a5&#45;9efc&#45;f3f123e370f5&#45;&gt;460cc29a&#45;86dd&#45;4f88&#45;81d5&#45;62578d88f069 -->
<g id="edge44" class="edge"><title>0b4d2d8b&#45;cd46&#45;49a5&#45;9efc&#45;f3f123e370f5&#45;&gt;460cc29a&#45;86dd&#45;4f88&#45;81d5&#45;62578d88f069</title>
<path fill="none" stroke="black" stroke-width="1.5" d="M876.677,-498.988C922.809,-479.966 999.212,-447.898 1064,-418 1089.64,-406.17 1117.92,-392.195 1140.7,-380.709"/>
<polygon fill="black" stroke="black" stroke-width="1.5" points="1142.44,-383.754 1149.78,-376.116 1139.27,-377.508 1142.44,-383.754"/>
</g>
<!-- 8624d386&#45;47a7&#45;4dbc&#45;bfff&#45;ac41463600cd&#45;&gt;0b4d2d8b&#45;cd46&#45;49a5&#45;9efc&#45;f3f123e370f5 -->
<g id="edge13" class="edge"><title>8624d386&#45;47a7&#45;4dbc&#45;bfff&#45;ac41463600cd&#45;&gt;0b4d2d8b&#45;cd46&#45;49a5&#45;9efc&#45;f3f123e370f5</title>
<path fill="none" stroke="black" stroke-width="1.5" d="M713.462,-518.227C734.133,-517.842 759.335,-517.373 781.26,-516.964"/>
<polygon fill="black" stroke="black" stroke-width="1.5" points="781.466,-520.461 791.399,-516.775 781.336,-513.462 781.466,-520.461"/>
</g>
<!-- 8624d386&#45;47a7&#45;4dbc&#45;bfff&#45;ac41463600cd&#45;&gt;2af30b4c&#45;722d&#45;44f2&#45;a5c6&#45;94f96121015f -->
<g id="edge33" class="edge"><title>8624d386&#45;47a7&#45;4dbc&#45;bfff&#45;ac41463600cd&#45;&gt;2af30b4c&#45;722d&#45;44f2&#45;a5c6&#45;94f96121015f</title>
<path fill="none" stroke="black" stroke-dasharray="5,2" d="M699.311,-500.849C726.339,-482.886 767.846,-455.301 797.435,-435.636"/>
<polygon fill="none" stroke="black" points="799.433,-438.511 805.824,-430.061 795.558,-432.681 799.433,-438.511"/>
</g>
<!-- 4545e0b1&#45;5a83&#45;49b6&#45;94f6&#45;38558118c902 -->
<g id="node25" class="node"><title>4545e0b1&#45;5a83&#45;49b6&#45;94f6&#45;38558118c902</title>
<polygon fill="none" stroke="black" stroke-width="2" points="1047.22,-346 970.778,-346 970.778,-310 1047.22,-310 1047.22,-346"/>
<text text-anchor="middle" x="1009" y="-323.8" font-family="sans-serif" font-size="14.00">minifyJs</text>
</g>
<!-- 4545e0b1&#45;5a83&#45;49b6&#45;94f6&#45;38558118c902&#45;&gt;460cc29a&#45;86dd&#45;4f88&#45;81d5&#45;62578d88f069 -->
<g id="edge45" class="edge"><title>4545e0b1&#45;5a83&#45;49b6&#45;94f6&#45;38558118c902&#45;&gt;460cc29a&#45;86dd&#45;4f88&#45;81d5&#45;62578d88f069</title>
<path fill="none" stroke="black" stroke-width="1.5" d="M1047.11,-334.362C1070.14,-338.31 1100.24,-343.469 1126.43,-347.959"/>
<polygon fill="black" stroke="black" stroke-width="1.5" points="1126.18,-351.468 1136.63,-349.708 1127.37,-344.569 1126.18,-351.468"/>
</g>
<!-- 7ef4e135&#45;5b08&#45;48af&#45;b5e6&#45;f170656bd044&#45;&gt;4545e0b1&#45;5a83&#45;49b6&#45;94f6&#45;38558118c902 -->
<g id="edge16" class="edge"><title>7ef4e135&#45;5b08&#45;48af&#45;b5e6&#45;f170656bd044&#45;&gt;4545e0b1&#45;5a83&#45;49b6&#45;94f6&#45;38558118c902</title>
<path fill="none" stroke="black" stroke-width="1.5" d="M708.902,-273.097C731.189,-277.905 760.183,-284.016 786,-289 846.063,-300.595 915.552,-312.571 960.558,-320.14"/>
<polygon fill="black" stroke="black" stroke-width="1.5" points="960.173,-323.624 970.614,-321.826 961.331,-316.721 960.173,-323.624"/>
</g>
<!-- 7ef4e135&#45;5b08&#45;48af&#45;b5e6&#45;f170656bd044&#45;&gt;2af30b4c&#45;722d&#45;44f2&#45;a5c6&#45;94f96121015f -->
<g id="edge34" class="edge"><title>7ef4e135&#45;5b08&#45;48af&#45;b5e6&#45;f170656bd044&#45;&gt;2af30b4c&#45;722d&#45;44f2&#45;a5c6&#45;94f96121015f</title>
<path fill="none" stroke="black" stroke-dasharray="5,2" d="M694.445,-283.28C700.831,-288.595 707.748,-294.462 714,-300 746.769,-329.027 783.268,-363.752 807.095,-386.76"/>
<polygon fill="none" stroke="black" points="804.746,-389.357 814.365,-393.797 809.614,-384.327 804.746,-389.357"/>
</g>
<!-- 42059627&#45;a472&#45;4e37&#45;ac54&#45;e8856ab25c73&#45;&gt;8624d386&#45;47a7&#45;4dbc&#45;bfff&#45;ac41463600cd -->
<g id="edge15" class="edge"><title>42059627&#45;a472&#45;4e37&#45;ac54&#45;e8856ab25c73&#45;&gt;8624d386&#45;47a7&#45;4dbc&#45;bfff&#45;ac41463600cd</title>
<path fill="none" stroke="black" stroke-width="1.5" d="M548.906,-560.998C571.1,-553.3 596.933,-544.341 619.025,-536.679"/>
<polygon fill="black" stroke="black" stroke-width="1.5" points="620.261,-539.955 628.562,-533.371 617.967,-533.342 620.261,-539.955"/>
</g>
<!-- 42059627&#45;a472&#45;4e37&#45;ac54&#45;e8856ab25c73&#45;&gt;da6ffa9f&#45;88ae&#45;46fa&#45;aec1&#45;f9734fd95262 -->
<g id="edge28" class="edge"><title>42059627&#45;a472&#45;4e37&#45;ac54&#45;e8856ab25c73&#45;&gt;da6ffa9f&#45;88ae&#45;46fa&#45;aec1&#45;f9734fd95262</title>
<path fill="none" stroke="black" stroke-dasharray="5,2" d="M539.44,-560.972C545.346,-557.479 551.071,-553.486 556,-549 604.721,-504.664 640.824,-434.906 658.287,-396.55"/>
<polygon fill="none" stroke="black" points="661.643,-397.619 662.518,-387.061 655.249,-394.769 661.643,-397.619"/>
</g>
<!-- f4137ca9&#45;97bd&#45;4581&#45;8cff&#45;6dd52cd362ff&#45;&gt;7ef4e135&#45;5b08&#45;48af&#45;b5e6&#45;f170656bd044 -->
<g id="edge18" class="edge"><title>f4137ca9&#45;97bd&#45;4581&#45;8cff&#45;6dd52cd362ff&#45;&gt;7ef4e135&#45;5b08&#45;48af&#45;b5e6&#45;f170656bd044</title>
<path fill="none" stroke="black" stroke-width="1.5" d="M527.134,-179.115C555.946,-196.436 599.536,-222.64 630.988,-241.548"/>
<polygon fill="black" stroke="black" stroke-width="1.5" points="629.547,-244.765 639.921,-246.918 633.154,-238.766 629.547,-244.765"/>
</g>
<!-- f4137ca9&#45;97bd&#45;4581&#45;8cff&#45;6dd52cd362ff&#45;&gt;da6ffa9f&#45;88ae&#45;46fa&#45;aec1&#45;f9734fd95262 -->
<g id="edge29" class="edge"><title>f4137ca9&#45;97bd&#45;4581&#45;8cff&#45;6dd52cd362ff&#45;&gt;da6ffa9f&#45;88ae&#45;46fa&#45;aec1&#45;f9734fd95262</title>
<path fill="none" stroke="black" stroke-dasharray="5,2" d="M512.05,-179.095C542.787,-216.051 612.867,-300.308 648.435,-343.072"/>
<polygon fill="none" stroke="black" points="645.776,-345.349 654.862,-350.799 651.158,-340.873 645.776,-345.349"/>
</g>
<!-- da6ffa9f&#45;88ae&#45;46fa&#45;aec1&#45;f9734fd95262&#45;&gt;3a312704&#45;c58a&#45;4bac&#45;b505&#45;6a2f56174d8e -->
<g id="edge36" class="edge"><title>da6ffa9f&#45;88ae&#45;46fa&#45;aec1&#45;f9734fd95262&#45;&gt;3a312704&#45;c58a&#45;4bac&#45;b505&#45;6a2f56174d8e</title>
<path fill="none" stroke="black" stroke-width="1.5" d="M684.097,-350.933C703.679,-322.35 744.35,-265.677 786,-224 790.232,-219.765 794.942,-215.561 799.7,-211.588"/>
<polygon fill="black" stroke="black" stroke-width="1.5" points="802.088,-214.159 807.676,-205.157 797.695,-208.709 802.088,-214.159"/>
</g>
<!-- 2af30b4c&#45;722d&#45;44f2&#45;a5c6&#45;94f96121015f&#45;&gt;13708d32&#45;4b18&#45;4c0c&#45;969e&#45;2461b60ec6d1 -->
<g id="edge12" class="edge"><title>2af30b4c&#45;722d&#45;44f2&#45;a5c6&#45;94f96121015f&#45;&gt;13708d32&#45;4b18&#45;4c0c&#45;969e&#45;2461b60ec6d1</title>
<path fill="none" stroke="black" stroke-width="1.5" d="M876.878,-406.432C899.278,-403.454 927.176,-399.745 951.473,-396.515"/>
<polygon fill="black" stroke="black" stroke-width="1.5" points="952.188,-399.951 961.639,-395.164 951.265,-393.012 952.188,-399.951"/>
</g>
<!-- 4cd436ed&#45;c8f4&#45;4e8f&#45;9667&#45;0619beca40aa&#45;&gt;460cc29a&#45;86dd&#45;4f88&#45;81d5&#45;62578d88f069 -->
<g id="edge46" class="edge"><title>4cd436ed&#45;c8f4&#45;4e8f&#45;9667&#45;0619beca40aa&#45;&gt;460cc29a&#45;86dd&#45;4f88&#45;81d5&#45;62578d88f069</title>
<path fill="none" stroke="black" stroke-width="1.5" d="M1043.74,-282.124C1071.83,-297.209 1111.97,-318.773 1142.29,-335.06"/>
<polygon fill="black" stroke="black" stroke-width="1.5" points="1140.9,-338.283 1151.36,-339.931 1144.21,-332.116 1140.9,-338.283"/>
</g>
<!-- 3a312704&#45;c58a&#45;4bac&#45;b505&#45;6a2f56174d8e&#45;&gt;c8f341e2&#45;00ea&#45;49f0&#45;a1ec&#45;d321126feb0f -->
<g id="edge40" class="edge"><title>3a312704&#45;c58a&#45;4bac&#45;b505&#45;6a2f56174d8e&#45;&gt;c8f341e2&#45;00ea&#45;49f0&#45;a1ec&#45;d321126feb0f</title>
<path fill="none" stroke="black" stroke-width="1.5" d="M881.816,-187C900.992,-187 923.489,-187 944.136,-187"/>
<polygon fill="black" stroke="black" stroke-width="1.5" points="944.417,-190.5 954.417,-187 944.417,-183.5 944.417,-190.5"/>
</g>
<!-- da167cfc&#45;ad70&#45;4e86&#45;a40e&#45;528e2beb12b2 -->
<g id="node35" class="node"><title>da167cfc&#45;ad70&#45;4e86&#45;a40e&#45;528e2beb12b2</title>
<polygon fill="limegreen" stroke="limegreen" points="1443.53,-384.3 1308.47,-384.3 1308.47,-331.7 1443.53,-331.7 1443.53,-384.3"/>
<text text-anchor="middle" x="1376" y="-353.8" font-family="sans-serif" font-size="14.00" fill="white">browserSyncProd</text>
</g>
<!-- 460cc29a&#45;86dd&#45;4f88&#45;81d5&#45;62578d88f069&#45;&gt;da167cfc&#45;ad70&#45;4e86&#45;a40e&#45;528e2beb12b2 -->
<g id="edge47" class="edge"><title>460cc29a&#45;86dd&#45;4f88&#45;81d5&#45;62578d88f069&#45;&gt;da167cfc&#45;ad70&#45;4e86&#45;a40e&#45;528e2beb12b2</title>
<path fill="none" stroke="black" stroke-width="1.5" d="M1235.41,-358C1254.49,-358 1276.86,-358 1298.05,-358"/>
<polygon fill="black" stroke="black" stroke-width="1.5" points="1298.33,-361.5 1308.33,-358 1298.33,-354.5 1298.33,-361.5"/>
</g>
</g>
</svg>
